:SAMPLES-PER-SECOND 30
:FULLY-SPECIFIED
:DEGREES
427
root  -2.7164 41.0105 0.192048 175.581 -80.8524 -174.104
RightUpLeg  -0.13306 -0.0610113 -0.341443
RightLeg  -4.92495 -12.359 1.82067
RightFoot  4.22895 -0.275666 2.22712
RightToes  -3.1126e-008 1.75238e-005 3.56266e-009
Spine  9.45216 2.64365 3.93766
Spine1  -12.3686 3.13125 -5.2269
HEad  -1.483 -2.58882 1.92864
LeftShoulder1  0.293808 2.28656 -17.4618
LeftArm  -49.9042 13.4347 -30.444
LeftForeArm  99.7142 -80.4221 -88.5247
LeftHand  -0.707844 -5.28032 7.98472
RightShoulder  1.76974 2.86496 21.5388
RightArm  -1.80694 12.6676 48.3854
RightForeArm  41.4758 74.7268 40.6388
RightHand  -0.0449971 8.0733 -0.769168
LeftUpLeg  2.08137 1.92899 3.55338
LeftLeg  -3.60481 25.7379 -1.66663
LeftFoot  1.40857 0.416534 -3.77345
LeftToes  4.78049e-008 1.46235e-008 1.34219e-009
428
root  -2.69001 41.0101 0.179482 175.038 -81.7813 -173.665
RightUpLeg  0.0491016 -0.207026 -0.413186
RightLeg  -4.94881 -13.1383 1.95474
RightFoot  4.13816 -0.272148 2.20997
RightToes  -3.1126e-008 1.75238e-005 3.56266e-009
Spine  8.86763 2.64281 2.86453
Spine1  -11.3403 3.02513 -3.96669
HEad  -1.40357 -3.28433 1.94168
LeftShoulder1  0.283666 2.34718 -17.8338
LeftArm  -48.3245 12.0211 -30.8072
LeftForeArm  101.288 -80.4619 -89.2855
LeftHand  -0.609926 -5.14762 6.99318
RightShoulder  1.68206 2.54929 21.541
RightArm  -4.17056 11.2908 46.9217
RightForeArm  41.9373 74.8087 40.8708
RightHand  -0.0295341 8.76919 -0.632383
LeftUpLeg  2.01624 1.87574 3.54332
LeftLeg  -3.59278 24.8995 -1.60601
LeftFoot  1.50877 0.414546 -3.69755
LeftToes  4.78049e-008 1.46235e-008 1.34219e-009
429
root  -2.65889 41.0098 0.145781 173.301 -83.21 -172.149
RightUpLeg  0.533231 -0.38585 -0.419294
RightLeg  -5.22223 -14.3823 2.24671
RightFoot  4.08812 -0.260688 2.12999
RightToes  -3.1126e-008 1.75238e-005 3.56266e-009
Spine  8.60066 2.44537 1.94661
Spine1  -10.5676 2.73024 -2.88393
HEad  -1.15454 -3.86599 1.96306
LeftShoulder1  0.370182 2.02212 -18.3796
LeftArm  -47.7141 9.58271 -30.9724
LeftForeArm  99.8609 -80.4729 -87.4359
LeftHand  -0.739529 -5.52422 8.10422
RightShoulder  1.61699 2.37701 21.2335
RightArm  -6.14449 9.2746 45.3385
RightForeArm  42.7061 75.306 42.9659
RightHand  -0.0322869 8.20768 -0.656214
LeftUpLeg  1.81388 1.87721 3.65753
LeftLeg  -3.14388 23.4383 -1.31729
LeftFoot  1.47546 0.428111 -3.89138
LeftToes  4.78049e-008 1.46235e-008 1.34219e-009
430
root  -2.64066 41.0094 0.0915989 170.907 -84.8404 -169.93
RightUpLeg  0.86567 -0.557774 -0.443701
RightLeg  -5.21304 -15.8203 2.4293
RightFoot  3.8926 -0.246904 2.04476
RightToes  -3.1126e-008 1.75238e-005 3.56266e-009
Spine  8.50889 2.33599 0.644773
Spine1  -10.2943 2.46804 -1.54027
HEad  -0.617953 -3.80234 2.32207
LeftShoulder1  0.380494 1.98816 -18.491
LeftArm  -47.0481 5.83492 -32.1449
LeftForeArm  97.3679 -80.4529 -84.5807
LeftHand  -0.382353 -5.21066 4.51825
RightShoulder  1.55338 2.12912 21.3217
RightArm  -7.86674 6.64194 43.4616
RightForeArm  43.7299 75.5586 43.9306
RightHand  0.0309239 8.45454 -0.126303
LeftUpLeg  1.69881 1.83049 3.7139
LeftLeg  -3.05471 21.8566 -1.19863
LeftFoot  1.61484 0.421834 -3.83325
LeftToes  4.78049e-008 1.46235e-008 1.34219e-009
431
root  -2.63098 41.009 0.0222706 163.168 -86.8078 -162.334
RightUpLeg  1.46035 -0.653529 -0.303511
RightLeg  -5.72679 -17.7394 2.86402
RightFoot  3.84216 -0.226199 1.89361
RightToes  -3.1126e-008 1.75238e-005 3.56266e-009
Spine  8.36257 2.07491 -0.746301
Spine1  -10.0832 2.01903 0.0826839
HEad  0.435845 -4.26238 2.72887
LeftShoulder1  0.458255 1.69432 -18.743
LeftArm  -47.0239 0.562558 -32.67
LeftForeArm  91.4213 -80.3192 -77.8022
LeftHand  -0.526329 -5.06969 6.14218
RightShoulder  1.55472 2.11787 21.4074
RightArm  -9.0748 3.64999 41.5947
RightForeArm  44.2305 75.7875 45.0226
RightHand  -0.0397554 7.8904 -0.722679
LeftUpLeg  1.41769 1.95961 3.99957
LeftLeg  -2.75167 19.7044 -1.04532
LeftFoot  1.68776 0.414784 -3.78513
LeftToes  4.78049e-008 1.46235e-008 1.34219e-009
432
root  -2.61798 41.0087 -0.0398578 132.263 -88.4874 -131.531
RightUpLeg  1.79127 -0.897828 -0.364559
RightLeg  -5.82671 -19.4041 3.16149
RightFoot  3.64036 -0.210386 1.7887
RightToes  -3.1126e-008 1.75238e-005 3.56266e-009
Spine  8.31661 1.84733 -2.07252
Spine1  -10.0115 1.64215 1.32233
HEad  1.28066 -4.63665 3.05799
LeftShoulder1  0.560833 1.28255 -18.6614
LeftArm  -46.349 -4.86096 -33.0315
LeftForeArm  87.2201 -80.1367 -72.8657
LeftHand  -0.452193 -4.70194 5.49568
RightShoulder  1.54199 2.0329 21.6162
RightArm  -9.83482 0.317868 39.9354
RightForeArm  45.2874 76.1223 46.6291
RightHand  -0.115011 7.55983 -1.39383
LeftUpLeg  1.12305 1.88286 4.01744
LeftLeg  -2.56504 17.8453 -0.905657
LeftFoot  1.82159 0.398277 -3.54798
LeftToes  4.78049e-008 1.46235e-008 1.34219e-009
433
root  -2.62163 41.0084 -0.104025 52.0591 -88.8849 -51.4401
RightUpLeg  2.07206 -1.16363 -0.463405
RightLeg  -5.74463 -21.0075 3.38536
RightFoot  3.32415 -0.199095 1.72314
RightToes  -3.1126e-008 1.75238e-005 3.56266e-009
Spine  8.21112 1.61311 -3.94502
Spine1  -9.72903 1.16381 3.35597
HEad  1.96775 -4.98321 3.14763
LeftShoulder1  0.581823 1.18456 -18.4853
LeftArm  -45.4877 -10.1375 -33.0198
LeftForeArm  84.7041 -79.9912 -70.1478
LeftHand  -0.419575 -4.60526 5.16361
RightShoulder  1.52739 1.97787 21.6323
RightArm  -10.1579 -3.07318 38.8263
RightForeArm  45.9142 76.3806 48.0708
RightHand  -0.101177 7.86516 -1.25626
LeftUpLeg  0.954344 1.76147 3.97886
LeftLeg  -2.5678 16.0664 -0.81526
LeftFoot  1.95815 0.406203 -3.58643
LeftToes  4.78049e-008 1.46235e-008 1.34219e-009
